Motion_pu02
version=1
nRows=5
nColumns=43
inDegrees=yes
endheader
time	pelvis_tilt	pelvis_list	pelvis_rotation	pelvis_tx	pelvis_ty	pelvis_tz	hip_flexion_r	hip_adduction_r	hip_rotation_r	knee_angle_r	ankle_angle_r	subtalar_angle_r	mtp_angle_r	hip_flexion_l	hip_adduction_l	hip_rotation_l	knee_angle_l	ankle_angle_l	subtalar_angle_l	mtp_angle_l	lumbar_extension	lumbar_bending	lumbar_rotation	neck_flexion	neck_lateral_bending	neck_rotation	arm_flex_r	arm_add_r	arm_rot_r	elbow_flex_r	pro_sup_r	wrist_flex_r	wrist_dev_r	hand_finger_flex_r	arm_flex_l	arm_add_l	arm_rot_l	elbow_flex_l	pro_sup_l	wrist_flex_l	wrist_dev_l	hand_finger_flex_l
      1.57500000	     -2.15648575	     -6.85715889	    -97.65603505	     -0.02238206	      0.95100961	      0.23351856	     -6.51418779	     -6.00519450	     -9.34806016	    -16.16712263	     11.51879760	     13.74405874	     16.38332857	    -11.82344391	     -9.86473193	    -22.68070079	    -11.24717683	      9.03509906	     19.03699478	     15.22462655	    -13.24126942	      2.54898774	      2.56000825	    -19.86493245	     -8.22023249	      7.47305950	     -2.42682493	    -55.56615171	    -55.91298210	     82.65424568	     96.22050421	      4.25085343	      3.97759344	    -24.79189321	    -15.76081113	    -45.58991065	    -50.39807818	     87.07238493	    104.09368594	     -4.33421029	      4.26975693	     27.16876207
      1.57750000	     -2.15034139	     -6.87904519	    -97.65427469	     -0.02276610	      0.95099452	      0.23327214	     -6.50191549	     -5.99025855	     -9.33670521	    -16.21221142	     11.55103244	     13.73934235	     16.38711794	    -11.83467861	     -9.88419419	    -22.68126962	    -11.24202958	      9.02588561	     19.04496313	     15.22212774	    -13.33486889	      2.53017352	      2.54203543	    -19.91042994	     -8.21431526	      7.49816063	     -2.45452951	    -55.39089622	    -55.70222395	     82.93428879	     96.23088894	      4.28206502	      3.90878072	    -24.78294102	    -15.70215525	    -45.36556978	    -50.07753416	     87.29877005	    104.14434825	     -4.32297373	      4.22733246	     27.15723286
      1.58000000	     -2.14692939	     -6.90091478	    -97.65186892	     -0.02317087	      0.95097052	      0.23301868	     -6.49141729	     -5.97136740	     -9.32791286	    -16.25492632	     11.58437676	     13.73526802	     16.39118895	    -11.84744581	     -9.90744089	    -22.68065957	    -11.23426470	      9.01411127	     19.05222740	     15.21925497	    -13.42856737	      2.51055731	      2.52584325	    -19.95510467	     -8.20222887	      7.52382067	     -2.48350887	    -55.20997462	    -55.49063031	     83.21047967	     96.24421166	      4.31037988	      3.84178068	    -24.77480739	    -15.64178022	    -45.13970855	    -49.75494696	     87.52524078	    104.19658323	     -4.31609799	      4.18720519	     27.14374115
      1.58250000	     -2.22935649	     -7.18360187	    -97.66047527	     -0.02350766	      0.95142445	      0.23272179	     -6.71177307	     -5.90359074	     -9.26569985	    -16.44608602	     11.76874569	     13.66153994	     16.40387583	    -12.18945694	     -9.96946967	    -22.67564217	    -11.14485539	      8.78471377	     19.13112296	     15.16961386	    -13.77600515	      2.55457266	      2.68621241	    -20.38374317	     -8.02397164	      7.73613574	     -2.73825580	    -55.03540935	    -55.52478091	     83.46756064	     96.69576227	      4.02723362	      3.72656268	    -24.82802819	    -15.13735976	    -44.96825411	    -48.92903347	     87.63855167	    105.31406924	     -4.84948569	      4.24863049	     26.75652049
      1.58500000	     -2.22070935	     -7.17876679	    -97.66116663	     -0.02404844	      0.95131335	      0.23251079	     -6.70429079	     -5.87848463	     -9.26804009	    -16.42323564	     11.76650929	     13.66567442	     16.40304084	    -12.18691169	     -9.99226210	    -22.69544758	    -11.12153879	      8.80634703	     19.12505427	     15.17178798	    -13.83456097	      2.50525121	      2.66930575	    -20.35535679	     -8.00950946	      7.71817292	     -2.80706395	    -54.85345609	    -55.28598857	     83.72485348	     96.69790592	      4.08010045	      3.66982969	    -24.80924119	    -15.10921513	    -44.75595152	    -48.64348266	     87.88025909	    105.32007309	     -4.81415707	      4.20271550	     26.76250868
